<svg height="457.14286pt" viewBox="0 0 457.14286 457.14286" width="457.14286pt" xmlns="http://www.w3.org/2000/svg"><path d="m228.519531 0c-126.011719 0-228.519531 102.507812-228.519531 228.519531 0 126.0625 102.507812 228.625 228.519531 228.625 126.0625 0 228.625-102.5625 228.625-228.625 0-126.011719-102.5625-228.519531-228.625-228.519531zm9.25 438.621094v-17.316406c0-5.054688-4.089843-9.144532-9.144531-9.144532s-9.144531 4.089844-9.144531 9.144532v17.324218c-108.671875-4.625-196.230469-92.15625-200.960938-200.859375h17.320313c5.054687 0 9.140625-4.089843 9.140625-9.144531s-4.085938-9.144531-9.140625-9.144531h-17.324219c4.625-108.703125 92.167969-196.285157 200.859375-200.960938v17.320313c0 5.054687 4.089844 9.140625 9.144531 9.140625 5.050781 0 9.140625-4.085938 9.140625-9.140625v-17.324219c108.71875 4.675781 196.285156 92.199219 200.964844 200.859375h-17.320312c-5.054688 0-9.144532 4.089844-9.144532 9.144531 0 5.050781 4.089844 9.140625 9.144532 9.140625h17.320312c-4.675781 108.683594-92.1875 196.234375-200.855469 200.960938zm0 0"/><path d="m331.089844 126.054688c-2.742188-2.761719-6.945313-3.457032-10.464844-1.761719l-129.285156 62.824219c-1.851563.9375-3.269532 2.332031-4.222656 4.222656l-62.824219 129.285156c-1.703125 3.507812-1 7.707031 1.761719 10.464844 1.75 1.757812 4.089843 2.679687 6.464843 2.679687 1.355469 0 2.722657-.304687 4-.921875l129.285157-62.820312c2.039062-.871094 3.429687-2.292969 4.222656-4.222656l62.820312-129.285157c1.707032-3.511719 1-7.707031-1.757812-10.464843zm-178.796875 178.792968 45.664062-93.964844 48.300781 48.304688zm106.894531-58.589844-48.304688-48.300781 93.964844-45.664062zm0 0"/></svg>